<svg id="b7d3cab6-66cd-4f7d-bfb0-85d307ae27ee" data-name="Layer 1" xmlns="http://www.w3.org/2000/svg" xmlns:xlink="http://www.w3.org/1999/xlink" viewBox="0 0 770.76 890"><defs><linearGradient id="e9cfe280-cffd-4054-b459-4e94f4505df0" x1="98.59" y1="245" x2="791.41" y2="645" gradientUnits="userSpaceOnUse"><stop offset="0" stop-color="#606"/><stop offset="1" stop-color="#2385af"/></linearGradient><linearGradient id="b5f51d3f-9245-42db-abf5-5ea8ba9e3115" x1="185.19" y1="295" x2="704.81" y2="595" xlink:href="#e9cfe280-cffd-4054-b459-4e94f4505df0"/></defs><polygon points="770.76 222.5 385.38 0 0 222.5 0 667.5 385.38 890 770.76 667.5 770.76 222.5" style="fill:#fff"/><path d="M445,97,746.41,271V619L445,793,143.59,619V271L445,97m0-52L98.59,245V645L445,845,791.41,645V245L445,45Z" transform="translate(-59.62)" style="fill:url(#e9cfe280-cffd-4054-b459-4e94f4505df0)"/><path d="M445,318.2l109.81,63.4V508.4L445,571.8,335.19,508.4V381.6L445,318.2M445,145,185.19,295V595L445,745,704.81,595V295L445,145Z" transform="translate(-59.62)" style="fill:url(#b5f51d3f-9245-42db-abf5-5ea8ba9e3115)"/></svg>