<svg id="Layer_1" data-name="Layer 1" xmlns="http://www.w3.org/2000/svg" viewBox="0 0 32 32"><title>asg</title><path d="M2.88,2.88h7.18V0H0V10.06H2.88Zm0,17.25V12.94H0V23H10.06V20.13ZM12.94,0V2.88h7.19v7.18H23V0Zm7.19,20.13H12.94V23H23V12.94H20.13Z" style="fill:#999"/><path d="M7.38,7.38h7.18V4.5H4.5V14.56H7.38Zm0,17.25V17.44H4.5V27.5H14.56V24.63ZM17.44,4.5V7.38h7.19v7.18H27.5V4.5Zm7.19,20.13H17.44V27.5H27.5V17.44H24.63Z" style="fill:#999"/><path d="M11.88,11.88h7.18V9H9V19.06h2.88Zm0,17.25V21.94H9V32H19.06V29.13ZM21.94,9v2.88h7.19v7.18H32V9Zm7.19,20.13H21.94V32H32V21.94H29.13Z" style="fill:#999"/></svg>