<svg id="Layer_1" data-name="Layer 1" xmlns="http://www.w3.org/2000/svg" viewBox="0 0 33 33"><title>firewall</title><path d="M16,10.5" transform="translate(0.5 0.5)" style="fill:none;stroke:#999;stroke-miterlimit:10"/><path d="M16,21.5" transform="translate(0.5 0.5)" style="fill:none;stroke:#999;stroke-miterlimit:10"/><path d="M27,12" transform="translate(0.5 0.5)" style="fill:none;stroke:#999;stroke-miterlimit:10"/><path d="M27,21.5" transform="translate(0.5 0.5)" style="fill:none;stroke:#999;stroke-miterlimit:10"/><path d="M5,21.5" transform="translate(0.5 0.5)" style="fill:none;stroke:#999;stroke-miterlimit:10"/><path d="M26.5,12.5" transform="translate(0.5 0.5)" style="fill:none;stroke:#999;stroke-miterlimit:10"/><path d="M5.5,12.5" transform="translate(0.5 0.5)" style="fill:none;stroke:#999;stroke-miterlimit:10"/><path d="M5,12" transform="translate(0.5 0.5)" style="fill:none;stroke:#999;stroke-miterlimit:10"/><path d="M5,21.5" transform="translate(0.5 0.5)" style="fill:none;stroke:#999;stroke-miterlimit:10"/><path d="M22.85,10,16.63,7A1.16,1.16,0,0,0,16,6.92a1.16,1.16,0,0,0-.63.11L9.15,10a1.34,1.34,0,0,0-.75,1.23v5.17a9.46,9.46,0,0,0,2.15,5.94,7,7,0,0,0,5.36,2.74h.18a7,7,0,0,0,5.36-2.74,9.46,9.46,0,0,0,2.15-5.94V11.24A1.34,1.34,0,0,0,22.85,10Zm-1.78,6.4h0c0,2.82-2.13,6-5,6h-.18c-2.85,0-5-3.14-5-6V12.12L16,9.7l5.07,2.42Z" transform="translate(0.5 0.5)" style="fill:none;stroke:#999;stroke-miterlimit:10"/><rect x="0.5" y="0.5" width="32" height="32" style="fill:none;stroke:#999;stroke-miterlimit:10"/></svg>