<svg id="Layer_1" data-name="Layer 1" xmlns="http://www.w3.org/2000/svg" viewBox="0 0 1000 1000"><title>front</title><path d="M474.76,407.83a92,92,0,0,1,76,40.23l2.22,3.26,3.94.22a70.41,70.41,0,0,1,63,49.34l1.34,4.32,4.39,1.09A43.36,43.36,0,0,1,616,591.74l-7.86.14v.29H392.39v-.36l-7.95,0a43.37,43.37,0,0,1-8.1-85.93l6.35-1.24.12-6.47a92,92,0,0,1,91.95-90.29m0-8A100,100,0,0,0,374.81,498a51.37,51.37,0,0,0,9.58,101.78v.41H616.18v-.43a51.37,51.37,0,0,0,11.46-101.22,78.25,78.25,0,0,0-70.23-55,99.87,99.87,0,0,0-82.65-43.72Z" transform="translate(0 0)" style="fill:#ffcdd2"/><path d="M141.42,807.66a92,92,0,0,1,76,40.23l2.22,3.26,3.94.22a70.41,70.41,0,0,1,63,49.34L288,905l4.4,1.09a43.37,43.37,0,0,1-9.68,85.46l-7.86.13V992H59.05v-.36l-7.95,0A43.37,43.37,0,0,1,43,905.66l6.35-1.24.12-6.47a92,92,0,0,1,91.94-90.29m0-8a100,100,0,0,0-99.94,98.15,51.37,51.37,0,0,0,9.57,101.78v.41h231.8v-.43A51.37,51.37,0,0,0,294.3,898.35a78.23,78.23,0,0,0-70.23-55,99.85,99.85,0,0,0-82.65-43.72Z" transform="translate(0 0)" style="fill:#ffcdd2"/><path d="M808.09,8a92,92,0,0,1,76,40.23l2.22,3.26,3.94.22a70.38,70.38,0,0,1,63,49.34l1.34,4.32,4.39,1.09a43.36,43.36,0,0,1-9.67,85.45l-7.87.14v.29H725.72V192l-8,0A43.37,43.37,0,0,1,709.68,106l6.35-1.24.11-6.47A92,92,0,0,1,808.09,8m0-8a100,100,0,0,0-100,98.15,51.37,51.37,0,0,0,9.58,101.78v.41H949.51v-.43A51.37,51.37,0,0,0,961,98.69a78.23,78.23,0,0,0-70.23-55A99.86,99.86,0,0,0,808.09,0Z" transform="translate(0 0)" style="fill:#ffcdd2"/><line x1="499" y1="700" x2="169" y2="700" style="fill:none;stroke:#ffcdd2;stroke-miterlimit:10;stroke-width:4px"/><path d="M169,700a15,15,0,0,1,30,0" transform="translate(0 0)" style="fill:#ffcdd2"/><polygon points="215 720 230 700 200 700 215 720" style="fill:#ffcdd2"/><path d="M230,700a15,15,0,0,1,30,0" transform="translate(0 0)" style="fill:#ffcdd2"/><polygon points="276 720 291 700 261 700 276 720" style="fill:#ffcdd2"/><path d="M291,700a15,15,0,0,1,30,0" transform="translate(0 0)" style="fill:#ffcdd2"/><polygon points="337 720 352 700 322 700 337 720" style="fill:#ffcdd2"/><path d="M352,700a15,15,0,0,1,30,0" transform="translate(0 0)" style="fill:#ffcdd2"/><polygon points="398 720 413 700 383 700 398 720" style="fill:#ffcdd2"/><path d="M413.5,700a15,15,0,0,1,30,0" transform="translate(0 0)" style="fill:#ffcdd2"/><polygon points="459.5 720 474.5 700 444.5 700 459.5 720" style="fill:#ffcdd2"/><line x1="831" y1="297.5" x2="501" y2="297.5" style="fill:none;stroke:#ffcdd2;stroke-miterlimit:10;stroke-width:4px"/><path d="M501,297.5a15,15,0,0,1,30,0" transform="translate(0 0)" style="fill:#ffcdd2"/><polygon points="547 317.5 562 297.5 532 297.5 547 317.5" style="fill:#ffcdd2"/><path d="M562,297.5a15,15,0,0,1,30,0" transform="translate(0 0)" style="fill:#ffcdd2"/><polygon points="608 317.5 623 297.5 593 297.5 608 317.5" style="fill:#ffcdd2"/><path d="M623,297.5a15,15,0,0,1,30,0" transform="translate(0 0)" style="fill:#ffcdd2"/><polygon points="669 317.5 684 297.5 654 297.5 669 317.5" style="fill:#ffcdd2"/><path d="M684,297.5a15,15,0,0,1,30,0" transform="translate(0 0)" style="fill:#ffcdd2"/><polygon points="730 317.5 745 297.5 715 297.5 730 317.5" style="fill:#ffcdd2"/><path d="M745.5,297.5a15,15,0,0,1,30,0" transform="translate(0 0)" style="fill:#ffcdd2"/><polygon points="791.5 317.5 806.5 297.5 776.5 297.5 791.5 317.5" style="fill:#ffcdd2"/></svg>