<?xml version="1.0" encoding="utf-8"?>
<!-- Generator: Adobe Illustrator 22.1.0, SVG Export Plug-In . SVG Version: 6.00 Build 0)  -->
<svg version="1.1" id="Layer_1" xmlns="http://www.w3.org/2000/svg" xmlns:xlink="http://www.w3.org/1999/xlink" x="0px" y="0px"
	 viewBox="0 0 516.6 310.5" style="enable-background:new 0 0 516.6 310.5;" xml:space="preserve">
<style type="text/css">
	.st0{fill:none;stroke:#2385AF;stroke-width:10;stroke-miterlimit:10;}
</style>
<title>stratus</title>
<path class="st0" d="M220.8,10.1c47.9,0,92.8,23.7,119.8,63.3l1.1,1.6l1.9,0.1c46.9,2.7,87.1,34.2,101,79.1l0.6,2.1l2.1,0.5
	c15.6,3.9,29.5,12.8,39.5,25.3c24.9,31.4,19.6,77-11.8,101.9c-12.5,9.9-27.9,15.4-43.9,15.7l-3.8,0.1v0.6H90.2v-0.6h-3.8
	c-40.1-0.3-72.4-33-72.1-73c0.2-34.5,24.7-64.1,58.6-70.8l3-0.6l0.1-3.1C77.3,73.3,141.8,10.1,220.8,10.1 M220.8,6.3
	c-81.1,0-147.2,65-148.6,146c-41.4,8.1-68.4,48.3-60.2,89.7c7,35.6,38.1,61.4,74.5,61.7v0.6h344.8v-0.6
	c42.2-0.7,75.8-35.5,75.1-77.7c-0.6-34.6-24.4-64.5-58-72.8c-14.4-46.4-56-79-104.4-81.8C316.1,30.6,270,6.2,220.8,6.3L220.8,6.3z"
	/>
</svg>
