<svg id="Layer_1" data-name="Layer 1" xmlns="http://www.w3.org/2000/svg" viewBox="0 0 516.63 310.5"><title>stratus</title><path d="M460.88,348.75a151,151,0,0,1,124.79,66l1.11,1.63,2,.11A117.23,117.23,0,0,1,694,498.88l.66,2.17,2.2.54A76,76,0,0,1,738,528a75.6,75.6,0,0,1-58,122.55l-3.93.07v.59H324.81v-.61l-4,0a75.62,75.62,0,0,1-14.1-149.82l3.17-.62.06-3.23A150.94,150.94,0,0,1,460.88,348.75m0-4A154.94,154.94,0,0,0,306,496.87a79.62,79.62,0,0,0,14.84,157.74v.64H680.06v-.66A79.62,79.62,0,0,0,697.82,497.7,121.23,121.23,0,0,0,589,412.52a154.75,154.75,0,0,0-128.09-67.77Z" transform="translate(-241.69 -344.75)" style="fill:#ffcdd2"/></svg>