<svg id="Layer_1" data-name="Layer 1" xmlns="http://www.w3.org/2000/svg" viewBox="0 0 30 30"><title>subnet</title><path d="M19,2V8H13V2h6m1-1H12V9h8V1Z" transform="translate(-1 -1)" style="fill:#999"/><path d="M8,24v6H2V24H8m1-1H1v8H9V23Z" transform="translate(-1 -1)" style="fill:#999"/><path d="M19,24v6H13V24h6m1-1H12v8h8V23Z" transform="translate(-1 -1)" style="fill:#999"/><path d="M30,24v6H24V24h6m1-1H23v8h8V23Z" transform="translate(-1 -1)" style="fill:#999"/><line x1="15" y1="20.5" x2="15" y2="9.5" style="fill:none;stroke:#999;stroke-miterlimit:10"/><line x1="26" y1="20.5" x2="26" y2="11" style="fill:none;stroke:#999;stroke-miterlimit:10"/><path d="M5,21.5" transform="translate(-1 -1)" style="fill:none;stroke:#999;stroke-miterlimit:10"/><line x1="4.5" y1="11.5" x2="25.5" y2="11.5" style="fill:none;stroke:#999;stroke-miterlimit:10"/><line x1="4" y1="20.5" x2="4" y2="11" style="fill:none;stroke:#999;stroke-miterlimit:10"/></svg>