<svg id="Layer_1" data-name="Layer 1" xmlns="http://www.w3.org/2000/svg" viewBox="0 0 1000 1000"><title>system</title><path d="M474.76,407.83a92,92,0,0,1,76,40.23l2.22,3.26,3.94.22a70.41,70.41,0,0,1,63,49.34l1.34,4.32,4.39,1.09A43.36,43.36,0,0,1,616,591.74l-7.86.14v.29H392.39v-.36l-7.95,0a43.37,43.37,0,0,1-8.1-85.93l6.35-1.24.12-6.47a92,92,0,0,1,91.95-90.29m0-8A100,100,0,0,0,374.81,498a51.37,51.37,0,0,0,9.58,101.78v.41H616.18v-.43a51.37,51.37,0,0,0,11.46-101.22,78.25,78.25,0,0,0-70.23-55,99.87,99.87,0,0,0-82.65-43.72Z" transform="translate(0 0)" style="fill:#ffcdd2"/><path d="M141.42,807.66a92,92,0,0,1,76,40.23l2.22,3.26,3.94.22a70.41,70.41,0,0,1,63,49.34L288,905l4.4,1.09a43.37,43.37,0,0,1-9.68,85.46l-7.86.13V992H59.05v-.36l-7.95,0A43.37,43.37,0,0,1,43,905.66l6.35-1.24.12-6.47a92,92,0,0,1,91.94-90.29m0-8a100,100,0,0,0-99.94,98.15,51.37,51.37,0,0,0,9.57,101.78v.41h231.8v-.43A51.37,51.37,0,0,0,294.3,898.35a78.23,78.23,0,0,0-70.23-55,99.85,99.85,0,0,0-82.65-43.72Z" transform="translate(0 0)" style="fill:#ffcdd2"/><path d="M169,898" transform="translate(0 0)" style="fill:none;stroke:#000;stroke-miterlimit:10;stroke-width:16px"/><path d="M829,105" transform="translate(0 0)" style="fill:none;stroke:#000;stroke-miterlimit:10;stroke-width:16px"/><path d="M808.09,8a92,92,0,0,1,76,40.23l2.22,3.26,3.94.22a70.38,70.38,0,0,1,63,49.34l1.34,4.32,4.39,1.09a43.36,43.36,0,0,1-9.67,85.45l-7.87.14v.29H725.72V192l-8,0A43.37,43.37,0,0,1,709.68,106l6.35-1.24.11-6.47A92,92,0,0,1,808.09,8m0-8a100,100,0,0,0-100,98.15,51.37,51.37,0,0,0,9.58,101.78v.41H949.51v-.43A51.37,51.37,0,0,0,961,98.69a78.23,78.23,0,0,0-70.23-55A99.86,99.86,0,0,0,808.09,0Z" transform="translate(0 0)" style="fill:#ffcdd2"/><line x1="718.25" y1="233.87" x2="567.5" y2="415.5" style="fill:none;stroke:#ffcdd2;stroke-miterlimit:10;stroke-width:4px"/><polygon points="699.68 233.06 715.09 237.68 722.47 251.98 733.5 215.5 699.68 233.06" style="fill:#ffcdd2"/><line x1="401.5" y1="615.5" x2="249.8" y2="797.17" style="fill:none;stroke:#ffcdd2;stroke-miterlimit:10;stroke-width:4px"/><polygon points="245.64 779.05 252.97 793.38 268.38 798.04 234.5 815.5 245.64 779.05" style="fill:#ffcdd2"/></svg>