<svg id="Layer_1" data-name="Layer 1" xmlns="http://www.w3.org/2000/svg" viewBox="0 0 32 32"><title>virtual-network</title><path d="M19,1V7H13V1h6m1-1H12V8h8V0Z" style="fill:#999"/><path d="M7,13v6H1V13H7m1-1H0v8H8V12Z" style="fill:#999"/><path d="M19,25v6H13V25h6m1-1H12v8h8V24Z" style="fill:#999"/><path d="M31,13v6H25V13h6m1-1H24v8h8V12Z" style="fill:#999"/><path d="M5,21.5" style="fill:none;stroke:#999;stroke-miterlimit:10"/><line x1="12" y1="4" x2="3.5" y2="4" style="fill:none;stroke:#999;stroke-miterlimit:10"/><line x1="4" y1="12.5" x2="4" y2="4" style="fill:none;stroke:#999;stroke-miterlimit:10"/><line x1="4" y1="20" x2="4" y2="28.5" style="fill:none;stroke:#999;stroke-miterlimit:10"/><line x1="12.5" y1="28" x2="4" y2="28" style="fill:none;stroke:#999;stroke-miterlimit:10"/><line x1="28" y1="12" x2="28" y2="3.5" style="fill:none;stroke:#999;stroke-miterlimit:10"/><line x1="19.5" y1="4" x2="28" y2="4" style="fill:none;stroke:#999;stroke-miterlimit:10"/><line x1="19.88" y1="28" x2="28.37" y2="28" style="fill:none;stroke:#999;stroke-miterlimit:10"/><line x1="27.88" y1="19.5" x2="27.88" y2="28" style="fill:none;stroke:#999;stroke-miterlimit:10"/></svg>